<?xml version="1.0" encoding="UTF-8" standalone="no"?>
<svg width="132px" height="30px" viewBox="0 0 132 30" version="1.1" xmlns="http://www.w3.org/2000/svg" xmlns:xlink="http://www.w3.org/1999/xlink">
    <!-- Generator: Sketch Beta 3.6 (26304) - http://www.bohemiancoding.com/sketch -->
    <title>BG - Logo Main</title>
    <desc>Created with Sketch Beta.</desc>
    <defs></defs>
    <g id="Page-1" stroke="none" stroke-width="1" fill="none" fill-rule="evenodd">
        <g id="Style-Guide---Navigation-Elements" transform="translate(-77.000000, -1573.000000)" fill="#34313F">
            <path d="M115.619019,1590.67915 C115.102121,1589.97805 114.223214,1589.40461 113.158799,1589.40461 C111.187381,1589.40461 109.765641,1590.90925 109.765641,1592.94728 C109.765641,1594.98604 111.187381,1596.49031 113.158799,1596.49031 C114.079851,1596.49031 114.940748,1596.09756 115.391008,1595.70626 C115.421265,1595.67993 115.436754,1595.64206 115.436754,1595.60203 L115.436754,1594.49664 C115.436754,1594.42739 115.380562,1594.37077 115.311041,1594.37077 L112.775538,1594.37077 C112.67468,1594.37077 112.592913,1594.2889 112.592913,1594.18828 L112.592913,1592.54768 C112.592913,1592.4467 112.67468,1592.36483 112.775538,1592.36483 L117.321722,1592.36483 L117.321722,1589.93008 L115.853875,1590.73397 C115.77571,1590.77689 115.67197,1590.75092 115.619019,1590.67915 Z M94.2776736,1591.83121 L96.9857166,1591.83121 C97.7612442,1591.83121 98.246084,1591.3941 98.246084,1590.69877 C98.246084,1590.03517 97.7612442,1589.56633 96.9857166,1589.56633 L94.2776736,1589.56633 C94.18474,1589.56633 94.1098167,1589.6417 94.1098167,1589.73439 L94.1098167,1591.66315 C94.1098167,1591.75584 94.18474,1591.83121 94.2776736,1591.83121 Z M105.287608,1598.18403 C105.287608,1598.26734 105.220249,1598.33443 105.137402,1598.33443 L103.143651,1598.33443 C103.060443,1598.33443 102.993084,1598.26734 102.993084,1598.18403 L102.993084,1587.69488 C102.993084,1587.61193 103.060443,1587.54449 103.143651,1587.54449 L105.137402,1587.54449 C105.220249,1587.54449 105.287608,1587.61193 105.287608,1587.69488 L105.287608,1598.18403 Z M116.748703,1573.07014 L96.9761711,1587.54449 L97.4865857,1587.54449 C99.5386901,1587.54449 100.588696,1588.85437 100.588696,1590.29408 C100.588696,1591.41427 100.004079,1592.2416 99.2195459,1592.6073 C99.0891506,1592.66825 99.0938333,1592.8529 99.2271103,1592.90736 C100.141678,1593.28207 100.799058,1594.26196 100.799058,1595.4063 C100.799058,1597.04041 99.732482,1598.33443 97.6645284,1598.33443 L91.9833294,1598.33443 C91.8903957,1598.33443 91.8151123,1598.25941 91.8151123,1598.16636 L91.8151123,1591.3223 L77.1481669,1602.05922 C76.8672048,1602.26515 77.0123686,1602.71092 77.3610498,1602.71092 L116.961586,1602.71092 C117.160421,1602.71092 117.321794,1602.54935 117.321794,1602.35027 L117.321794,1596.91995 C116.262062,1597.90922 114.868778,1598.52882 113.158511,1598.52882 C109.991923,1598.52882 107.406711,1596.34508 107.406711,1592.94739 C107.406711,1589.53383 109.991923,1587.36632 113.158511,1587.36632 C115.14974,1587.36632 116.48359,1588.26939 117.321794,1589.37262 L117.321794,1573.36119 C117.321794,1573.06618 116.986801,1572.89595 116.748703,1573.07014 Z M94.2776736,1596.31219 L97.0826125,1596.31219 C97.9388267,1596.31219 98.455725,1595.85921 98.455725,1595.08273 C98.455725,1594.40362 97.9716056,1593.85327 97.0826125,1593.85327 L94.2776736,1593.85327 C94.18474,1593.85327 94.1098167,1593.92865 94.1098167,1594.02133 L94.1098167,1596.14412 C94.1098167,1596.23681 94.18474,1596.31219 94.2776736,1596.31219 Z M128.814299,1595.9849 L127.578426,1595.3433 C127.49882,1595.30182 127.398322,1595.33212 127.350054,1595.40786 C126.827392,1596.22834 125.863116,1596.83747 124.815271,1596.83747 C122.758124,1596.83747 121.230842,1595.1875 121.230842,1592.93848 C121.230842,1590.65773 122.758124,1589.03985 124.815271,1589.03985 C125.862395,1589.03985 126.826312,1589.63384 127.349334,1590.4655 C127.397962,1590.54304 127.49954,1590.57298 127.580227,1590.52934 L128.806735,1589.86033 C128.900029,1589.80948 128.932808,1589.69299 128.875534,1589.60283 C128.099647,1588.38022 126.814785,1587.35742 124.815271,1587.35742 C121.744859,1587.35742 119.360283,1589.60643 119.360283,1592.93848 C119.360283,1596.25502 121.744859,1598.51991 124.815271,1598.51991 C126.812624,1598.51991 128.082717,1597.47005 128.8849,1596.24673 C128.945775,1596.15404 128.912276,1596.03575 128.814299,1595.9849 Z M135.256257,1596.83755 C133.150122,1596.83755 131.808347,1595.15511 131.808347,1592.93855 C131.808347,1590.70649 133.150122,1589.03992 135.256257,1589.03992 C137.346544,1589.03992 138.703807,1590.70649 138.703807,1592.93855 C138.703807,1595.15511 137.346544,1596.83755 135.256257,1596.83755 Z M133.783007,1587.54611 C131.465789,1588.16607 129.936347,1590.25423 129.936347,1592.93855 C129.936347,1596.15808 132.136136,1598.51998 135.256257,1598.51998 C137.913151,1598.51998 139.918788,1596.78994 140.44181,1594.2726 C141.293702,1590.17309 137.699187,1586.49878 133.783007,1587.54611 Z M153.518186,1587.53561 L151.15306,1587.53561 C151.04788,1587.53561 150.953505,1587.59981 150.914963,1587.69791 L148.054552,1595.1017 L145.177932,1587.69719 C145.13939,1587.59981 145.045015,1587.53561 144.939834,1587.53561 L142.574349,1587.53561 C142.504469,1587.53561 142.447556,1587.5926 142.447556,1587.66256 L142.447556,1598.19897 C142.447556,1598.26893 142.504469,1598.32591 142.574349,1598.32591 L144.211494,1598.32591 C144.281374,1598.32591 144.338287,1598.26893 144.338287,1598.19897 L144.338287,1589.99453 L147.628066,1598.26857 C147.641754,1598.30319 147.675253,1598.32591 147.712355,1598.32591 L148.39675,1598.32591 C148.433851,1598.32591 148.46735,1598.30319 148.481038,1598.26857 L151.754608,1589.99453 L151.754608,1598.19897 C151.754608,1598.26893 151.81116,1598.32591 151.881401,1598.32591 L153.518186,1598.32591 C153.588426,1598.32591 153.644979,1598.26893 153.644979,1598.19897 L153.644979,1587.66256 C153.644979,1587.5926 153.588426,1587.53561 153.518186,1587.53561 Z M177.694511,1587.53561 L170.699994,1587.53561 C170.592292,1587.53561 170.505122,1587.62289 170.505122,1587.73073 L170.505122,1598.1308 C170.505122,1598.23864 170.592292,1598.32591 170.699994,1598.32591 L177.694511,1598.32591 C177.802214,1598.32591 177.889384,1598.23864 177.889384,1598.1308 L177.889384,1596.85482 C177.889384,1596.74699 177.802214,1596.65971 177.694511,1596.65971 L172.590726,1596.65971 C172.483023,1596.65971 172.395853,1596.57243 172.395853,1596.4646 L172.395853,1593.84555 C172.395853,1593.73772 172.483023,1593.65044 172.590726,1593.65044 L177.581766,1593.65044 C177.689108,1593.65044 177.776639,1593.5628 177.776639,1593.45533 L177.776639,1592.17935 C177.776639,1592.07151 177.689108,1591.98424 177.581766,1591.98424 L172.590726,1591.98424 C172.483023,1591.98424 172.395853,1591.89696 172.395853,1591.78913 L172.395853,1589.39693 C172.395853,1589.2891 172.483023,1589.20182 172.590726,1589.20182 L177.694511,1589.20182 C177.802214,1589.20182 177.889384,1589.11418 177.889384,1589.00671 L177.889384,1587.73073 C177.889384,1587.62289 177.802214,1587.53561 177.694511,1587.53561 Z M185.068219,1592.63139 L182.659869,1592.63139 C182.553248,1592.63139 182.466798,1592.54483 182.466798,1592.43808 L182.466798,1589.39491 C182.466798,1589.28816 182.553248,1589.2016 182.659869,1589.2016 L185.068219,1589.2016 C186.134074,1589.2016 186.909962,1589.8652 186.909962,1590.90063 C186.909962,1591.95192 186.134074,1592.63139 185.068219,1592.63139 Z M186.551555,1594.03143 C187.757892,1593.72704 188.848601,1592.6927 188.848601,1590.9165 C188.848601,1588.91056 187.44307,1587.53576 185.310279,1587.53576 L180.769138,1587.53576 C180.662516,1587.53576 180.576067,1587.62231 180.576067,1587.72907 L180.576067,1598.13239 C180.576067,1598.23914 180.662516,1598.32606 180.769138,1598.32606 L182.273366,1598.32606 C182.379988,1598.32606 182.466798,1598.23914 182.466798,1598.13239 L182.466798,1594.4909 C182.466798,1594.38415 182.553248,1594.29759 182.659869,1594.29759 L184.246945,1594.29759 C184.315385,1594.29759 184.378421,1594.33366 184.413361,1594.39244 L186.676187,1598.23085 C186.710767,1598.28963 186.774164,1598.32606 186.842603,1598.32606 L188.580967,1598.32606 C188.732614,1598.32606 188.825908,1598.1598 188.745222,1598.03105 C188.246334,1597.23293 186.876463,1595.04161 186.425843,1594.32067 C186.354161,1594.20671 186.42116,1594.06425 186.551555,1594.03143 Z M203.696659,1589.20171 L208.81017,1589.20171 C208.914991,1589.20171 209,1589.1166 209,1589.01129 L209,1587.72593 C209,1587.62098 208.914991,1587.53551 208.81017,1587.53551 L201.805928,1587.53551 C201.701107,1587.53551 201.615738,1587.62098 201.615738,1587.72593 L201.615738,1598.13538 C201.615738,1598.24069 201.701107,1598.32581 201.805928,1598.32581 L208.81017,1598.32581 C208.914991,1598.32581 209,1598.24069 209,1598.13538 L209,1596.85002 C209,1596.74508 208.914991,1596.65996 208.81017,1596.65996 L203.696659,1596.65996 C203.591478,1596.65996 203.506469,1596.57449 203.506469,1596.46954 L203.506469,1593.84076 C203.506469,1593.73545 203.591478,1593.65033 203.696659,1593.65033 L208.697065,1593.65033 C208.802246,1593.65033 208.887255,1593.56522 208.887255,1593.45991 L208.887255,1592.17455 C208.887255,1592.0696 208.802246,1591.98413 208.697065,1591.98413 L203.696659,1591.98413 C203.591478,1591.98413 203.506469,1591.89902 203.506469,1591.79371 L203.506469,1589.39213 C203.506469,1589.28682 203.591478,1589.20171 203.696659,1589.20171 Z M199.686789,1595.94003 L198.450915,1595.29843 C198.371309,1595.25696 198.270811,1595.28725 198.222544,1595.36299 C197.699882,1596.18347 196.735605,1596.79261 195.687761,1596.79261 C193.630613,1596.79261 192.103332,1595.14263 192.103332,1592.89362 C192.103332,1590.61286 193.630613,1588.99499 195.687761,1588.99499 C196.734885,1588.99499 197.698801,1589.58898 198.221823,1590.42064 C198.270451,1590.49818 198.37203,1590.52811 198.452716,1590.48447 L199.679224,1589.81547 C199.772518,1589.76461 199.805297,1589.64776 199.748024,1589.55796 C198.972136,1588.33536 197.687275,1587.31255 195.687761,1587.31255 C192.617348,1587.31255 190.232772,1589.56157 190.232772,1592.89362 C190.232772,1596.21016 192.617348,1598.47504 195.687761,1598.47504 C197.684753,1598.47504 198.955206,1597.42519 199.757389,1596.20186 C199.818265,1596.10918 199.784765,1595.99088 199.686789,1595.94003 Z M167.476494,1587.53561 L165.111369,1587.53561 C165.006188,1587.53561 164.911814,1587.59981 164.873271,1587.69791 L162.01286,1595.1017 L159.13624,1587.69719 C159.097698,1587.59981 159.003323,1587.53561 158.898143,1587.53561 L156.532657,1587.53561 C156.462777,1587.53561 156.405864,1587.5926 156.405864,1587.66256 L156.405864,1598.19897 C156.405864,1598.26893 156.462777,1598.32591 156.532657,1598.32591 L158.169802,1598.32591 C158.239683,1598.32591 158.296595,1598.26893 158.296595,1598.19897 L158.296595,1589.99453 L161.586374,1598.26857 C161.600062,1598.30319 161.633561,1598.32591 161.670663,1598.32591 L162.355058,1598.32591 C162.392159,1598.32591 162.425659,1598.30319 162.439347,1598.26857 L165.712916,1589.99453 L165.712916,1598.19897 C165.712916,1598.26893 165.769469,1598.32591 165.839709,1598.32591 L167.476494,1598.32591 C167.546734,1598.32591 167.603287,1598.26893 167.603287,1598.19897 L167.603287,1587.66256 C167.603287,1587.5926 167.546734,1587.53561 167.476494,1587.53561 Z" id="BG---Logo-Main"></path>
        </g>
    </g>
</svg>