<svg width="132" height="24" viewBox="0 0 132 24" fill="none" xmlns="http://www.w3.org/2000/svg">
<path d="M15.1732 4.00057H4.75843V9.58745H13.783V13.5869H4.76079V23.6071H0V1.91763C0 1.34482 0.198567 0.882202 0.595695 0.529784C0.984906 0.179732 1.49251 -0.00949237 2.01588 0.000366772H15.1724L15.1732 4.00057Z" fill="black"/>
<path d="M23.3745 6.64528C25.6005 6.64528 27.3745 7.24571 28.6963 8.44656C30.0181 9.64741 30.6793 11.3387 30.6798 13.5206V23.6032H26.7135V21.4547C25.4575 23.1516 23.6722 24 21.3579 24C19.661 24 18.2892 23.5316 17.2425 22.5948C16.1957 21.658 15.6724 20.4185 15.6724 18.8763C15.6724 16.9827 16.4327 15.5999 17.9533 14.7277C19.474 13.8556 21.4023 13.4204 23.7383 13.422C24.6784 13.418 25.6175 13.4842 26.5479 13.62V13.3896C26.5479 12.3539 26.2283 11.5649 25.5892 11.0226C24.9501 10.4803 24.1017 10.2105 23.0439 10.2131C21.325 10.2131 19.6502 10.8412 18.0196 12.0972L16.0984 9.28684C17.9715 7.5258 20.3969 6.64528 23.3745 6.64528ZM22.449 20.661C23.6388 20.661 24.5975 20.2533 25.3249 19.438C26.0524 18.6228 26.46 17.565 26.5479 16.2647C25.6884 16.1984 24.862 16.1653 24.0688 16.1653C21.4457 16.1653 20.1344 16.9698 20.1349 18.5788C20.1349 19.1958 20.3453 19.6971 20.7661 20.0827C21.1869 20.4682 21.7468 20.661 22.4459 20.661H22.449Z" fill="black"/>
<path d="M40.0651 23.9669C37.2005 23.9669 34.8974 23.1295 33.1559 21.4547L34.9414 18.6143C36.5493 19.9146 38.1912 20.5647 39.8671 20.5647C40.594 20.5647 41.2054 20.4214 41.7015 20.1347C42.1975 19.848 42.4455 19.4514 42.4455 18.9449C42.4467 18.7744 42.4129 18.6055 42.3461 18.4486C42.2722 18.2848 42.1646 18.1383 42.0305 18.0186C41.9013 17.898 41.7631 17.7875 41.617 17.688C41.428 17.5713 41.2289 17.4718 41.0221 17.3906C40.7591 17.2812 40.5443 17.1986 40.3775 17.1428C40.2108 17.0871 39.9573 17.0045 39.6169 16.8951C39.275 16.7846 39.0273 16.7076 38.8737 16.6639C37.3304 16.1342 36.1469 15.517 35.3232 14.8121C34.4995 14.1073 34.0861 13.1158 34.0829 11.8376C34.0829 10.207 34.7057 8.93413 35.9513 8.0189C37.1968 7.10367 38.8011 6.64658 40.7641 6.64763C43.1437 6.64763 45.2154 7.28671 46.979 8.56489L45.2598 11.3745C43.7397 10.4487 42.3071 9.98586 40.9622 9.98586C40.2347 9.98586 39.6509 10.1237 39.2106 10.3993C38.7703 10.6749 38.55 11.0331 38.5494 11.4739C38.5494 11.8263 38.7146 12.1403 39.0449 12.416C39.3137 12.6537 39.6211 12.8437 39.9538 12.9777C40.2289 13.0771 40.7305 13.2478 41.4584 13.4898C42.2069 13.7328 42.7632 13.9203 43.1272 14.0523C43.631 14.2481 44.1224 14.4744 44.5986 14.7301C45.2156 15.0494 45.673 15.3689 45.9707 15.6887C46.3017 16.062 46.5732 16.484 46.7755 16.9401C47.0236 17.4847 47.1478 18.0775 47.1392 18.6759C47.1392 20.3291 46.4554 21.6238 45.0878 22.5601C43.7202 23.4963 42.046 23.9653 40.0651 23.9669Z" fill="black"/>
<path d="M60.6594 19.0743L62.0796 22.2808C60.6031 23.4054 58.8731 23.9674 56.8896 23.9669C55.1049 23.9669 53.7165 23.438 52.7245 22.3802C51.7325 21.3224 51.2367 19.8349 51.2372 17.9176V10.1855H48.7582V7.07764H51.2372V1.94918H55.7345V7.07764H61.0886V10.1855H55.7337V17.5231C55.7337 18.4042 55.9596 19.0322 56.4115 19.4073C56.8609 19.7812 57.4301 19.9807 58.0147 19.969C58.8742 19.9674 59.7557 19.6692 60.6594 19.0743Z" fill="black"/>
<path d="M70.8864 18L72.0568 14.7045H76.7614L77.9318 18H79.4091L75.1364 6.36364H73.6818L69.4091 18H70.8864ZM72.5 13.4545L74.3636 8.20455H74.4545L76.3182 13.4545H72.5Z" fill="black"/>
<path d="M81.2216 18H82.6307V13.75H85.1761C87.8864 13.75 89.108 12.1023 89.108 10.0455C89.108 7.98864 87.8864 6.36364 85.1534 6.36364H81.2216V18ZM82.6307 12.5V7.61364H85.108C87 7.61364 87.7216 8.64773 87.7216 10.0455C87.7216 11.4432 87 12.5 85.1307 12.5H82.6307Z" fill="black"/>
<path d="M92.7869 6.36364H91.3778V18H92.7869V6.36364Z" fill="black"/>
</svg>
