<svg width="998" height="208" viewBox="0 0 998 208" fill="none" xmlns="http://www.w3.org/2000/svg">
<rect width="998" height="208" fill="#F6C5CF"/>
<path d="M403 82C403 78.6863 405.686 76 409 76H588C591.314 76 594 78.6863 594 82V126C594 129.314 591.314 132 588 132H409C405.686 132 403 129.314 403 126V82Z" fill="black"/>
<path fill-rule="evenodd" clip-rule="evenodd" d="M435.926 100.932C435.927 101.291 435.636 101.581 435.277 101.581L434.781 101.582C434.423 101.582 434.134 101.291 434.133 100.934L434.132 99.8664C434.131 97.1844 436.312 95.0016 438.994 95C441.676 94.9986 443.859 97.1798 443.859 99.8618L443.86 100.933C443.861 101.292 443.57 101.582 443.212 101.582H442.716C442.359 101.582 442.069 101.292 442.068 100.934L442.067 99.8626C442.066 98.1695 440.688 96.7922 438.995 96.793C437.302 96.7938 435.924 98.1718 435.925 99.8656L435.926 100.932ZM433.798 102.328H444.298L444.298 102.328C445.172 102.382 445.866 103.106 445.866 103.992V111.324C445.868 112.246 445.12 112.994 444.198 112.994L433.802 113C432.88 113 432.13 112.252 432.13 111.33V104C432.128 103.078 432.876 102.328 433.798 102.328Z" fill="white"/>
<path d="M460.411 110H462.167V104.926H467.11V103.42H462.167V99.875H467.627V98.3636H460.411V110ZM472.158 110.193C473.602 110.193 474.414 109.46 474.738 108.807H474.806V110H476.465V104.205C476.465 101.665 474.465 101.159 473.079 101.159C471.499 101.159 470.045 101.795 469.477 103.386L471.073 103.75C471.323 103.131 471.96 102.534 473.102 102.534C474.198 102.534 474.761 103.108 474.761 104.097V104.136C474.761 104.756 474.124 104.744 472.556 104.926C470.903 105.119 469.21 105.551 469.21 107.534C469.21 109.25 470.499 110.193 472.158 110.193ZM472.528 108.83C471.567 108.83 470.874 108.398 470.874 107.557C470.874 106.648 471.681 106.324 472.664 106.193C473.215 106.119 474.522 105.972 474.766 105.727V106.852C474.766 107.886 473.942 108.83 472.528 108.83ZM485.268 103.403C484.915 102.045 483.853 101.159 481.967 101.159C479.995 101.159 478.597 102.199 478.597 103.744C478.597 104.983 479.347 105.807 480.984 106.17L482.461 106.494C483.302 106.682 483.694 107.057 483.694 107.602C483.694 108.278 482.972 108.807 481.859 108.807C480.842 108.807 480.188 108.369 479.984 107.511L478.342 107.761C478.626 109.307 479.91 110.176 481.87 110.176C483.978 110.176 485.438 109.057 485.438 107.477C485.438 106.244 484.654 105.483 483.052 105.114L481.665 104.795C480.705 104.568 480.29 104.244 480.296 103.653C480.29 102.983 481.018 102.506 481.984 102.506C483.04 102.506 483.529 103.091 483.728 103.676L485.268 103.403ZM491.38 101.273H489.59V99.1818H487.891V101.273H486.613V102.636H487.891V107.79C487.886 109.375 489.096 110.142 490.437 110.114C490.977 110.108 491.34 110.006 491.539 109.932L491.232 108.528C491.119 108.551 490.908 108.602 490.636 108.602C490.085 108.602 489.59 108.42 489.59 107.438V102.636H491.38V101.273ZM507.295 102.148C506.897 99.6591 504.948 98.2045 502.488 98.2045C499.477 98.2045 497.255 100.46 497.255 104.182C497.255 107.903 499.465 110.159 502.488 110.159C505.045 110.159 506.914 108.557 507.295 106.256L505.522 106.25C505.221 107.739 503.971 108.557 502.499 108.557C500.505 108.557 498.999 107.028 498.999 104.182C498.999 101.358 500.499 99.8068 502.505 99.8068C503.988 99.8068 505.232 100.642 505.522 102.148H507.295ZM510.958 104.818C510.958 103.426 511.839 102.631 513.049 102.631C514.219 102.631 514.918 103.375 514.918 104.653V110H516.617V104.449C516.617 102.273 515.424 101.159 513.629 101.159C512.271 101.159 511.452 101.75 511.043 102.693H510.935V98.3636H509.259V110H510.958V104.818ZM522.646 110.176C524.549 110.176 525.896 109.239 526.282 107.818L524.674 107.528C524.367 108.352 523.629 108.773 522.663 108.773C521.208 108.773 520.231 107.83 520.185 106.148H526.39V105.545C526.39 102.392 524.504 101.159 522.526 101.159C520.094 101.159 518.492 103.011 518.492 105.693C518.492 108.403 520.072 110.176 522.646 110.176ZM520.191 104.875C520.259 103.636 521.157 102.562 522.538 102.562C523.856 102.562 524.719 103.54 524.725 104.875H520.191ZM531.951 110.176C534.013 110.176 535.349 108.938 535.536 107.239H533.883C533.667 108.182 532.934 108.739 531.962 108.739C530.525 108.739 529.599 107.54 529.599 105.636C529.599 103.767 530.542 102.591 531.962 102.591C533.042 102.591 533.701 103.273 533.883 104.091H535.536C535.354 102.33 533.917 101.159 531.934 101.159C529.474 101.159 527.883 103.011 527.883 105.676C527.883 108.307 529.417 110.176 531.951 110.176ZM537.353 110H539.052V106.903L539.898 106.057L542.864 110H544.95L541.177 105.017L544.711 101.273H542.677L539.2 104.966H539.052V98.3636H537.353V110ZM549.576 110.176C552.036 110.176 553.644 108.375 553.644 105.676C553.644 102.96 552.036 101.159 549.576 101.159C547.116 101.159 545.508 102.96 545.508 105.676C545.508 108.375 547.116 110.176 549.576 110.176ZM549.582 108.75C547.974 108.75 547.224 107.347 547.224 105.67C547.224 104 547.974 102.58 549.582 102.58C551.178 102.58 551.928 104 551.928 105.67C551.928 107.347 551.178 108.75 549.582 108.75ZM561.069 106.381C561.075 107.864 559.972 108.568 559.018 108.568C557.967 108.568 557.239 107.807 557.239 106.619V101.273H555.54V106.824C555.54 108.989 556.728 110.114 558.404 110.114C559.717 110.114 560.609 109.42 561.012 108.489H561.103V110H562.773V101.273H561.069V106.381ZM569.13 101.273H567.34V99.1818H565.641V101.273H564.363V102.636H565.641V107.79C565.636 109.375 566.846 110.142 568.187 110.114C568.727 110.108 569.09 110.006 569.289 109.932L568.982 108.528C568.869 108.551 568.658 108.602 568.386 108.602C567.835 108.602 567.34 108.42 567.34 107.438V102.636H569.13V101.273Z" fill="white"/>
</svg>
