<svg width="40" height="40" viewBox="0 0 40 40" fill="none" xmlns="http://www.w3.org/2000/svg">
<g clip-path="url(#clip0)">
<path d="M20 6.65997C18.4529 6.65997 16.9692 7.27455 15.8752 8.36852C14.7812 9.46248 14.1667 10.9462 14.1667 12.4933C14.1667 14.0404 14.7812 15.5241 15.8752 16.6181C16.9692 17.7121 18.4529 18.3266 20 18.3266C21.5471 18.3266 23.0308 17.7121 24.1248 16.6181C25.2188 15.5241 25.8333 14.0404 25.8333 12.4933C25.8333 10.9462 25.2188 9.46248 24.1248 8.36852C23.0308 7.27455 21.5471 6.65997 20 6.65997V6.65997ZM7.5 11.66C6.39493 11.66 5.33512 12.099 4.55372 12.8804C3.77232 13.6618 3.33333 14.7216 3.33333 15.8266C3.33333 16.3738 3.44111 16.9156 3.6505 17.4212C3.8599 17.9267 4.16681 18.386 4.55372 18.7729C5.33512 19.5543 6.39493 19.9933 7.5 19.9933C8.04717 19.9933 8.58899 19.8855 9.09451 19.6761C9.60004 19.4667 10.0594 19.1598 10.4463 18.7729C10.8332 18.386 11.1401 17.9267 11.3495 17.4212C11.5589 16.9156 11.6667 16.3738 11.6667 15.8266C11.6667 15.2795 11.5589 14.7376 11.3495 14.2321C11.1401 13.7266 10.8332 13.2673 10.4463 12.8804C10.0594 12.4935 9.60004 12.1865 9.09451 11.9771C8.58899 11.7677 8.04717 11.66 7.5 11.66V11.66ZM32.5 11.66C31.3949 11.66 30.3351 12.099 29.5537 12.8804C28.7723 13.6618 28.3333 14.7216 28.3333 15.8266C28.3333 16.3738 28.4411 16.9156 28.6505 17.4212C28.8599 17.9267 29.1668 18.386 29.5537 18.7729C30.3351 19.5543 31.3949 19.9933 32.5 19.9933C33.0472 19.9933 33.589 19.8855 34.0945 19.6761C34.6 19.4667 35.0594 19.1598 35.4463 18.7729C35.8332 18.386 36.1401 17.9267 36.3495 17.4212C36.5589 16.9156 36.6667 16.3738 36.6667 15.8266C36.6667 14.7216 36.2277 13.6618 35.4463 12.8804C34.6649 12.099 33.6051 11.66 32.5 11.66ZM20 21.66C16.1067 21.66 8.33333 23.615 8.33333 27.4933V31.66C8.33333 32.58 9.08 33.3266 10 33.3266H30C30.92 33.3266 31.6667 32.58 31.6667 31.66V27.4933C31.6667 23.615 23.8933 21.66 20 21.66ZM6.4974 23.4145C3.8624 23.8212 0 25.6418 0 27.8351V31.66C0 32.58 0.746667 33.3266 1.66667 33.3266H5V27.4933C5 25.8916 5.57573 24.5479 6.4974 23.4145ZM33.5026 23.4145C34.4243 24.5479 35 25.8916 35 27.4933V33.3266H38.3333C39.2533 33.3266 40 32.58 40 31.66V27.8351C40 25.6418 36.1376 23.8212 33.5026 23.4145Z" fill="black"/>
</g>
<defs>
<clipPath id="clip0">
<rect width="40" height="40" fill="white"/>
</clipPath>
</defs>
</svg>
