<svg width="42" height="42" viewBox="0 0 42 42" fill="none" xmlns="http://www.w3.org/2000/svg">
<path d="M18.2308 3.69C9.81923 3.69 3 9.88893 3 17.5362C3 21.4638 4.81125 24.9961 7.70282 27.5124C7.28807 28.8707 6.42291 30.2216 4.83353 31.4256C4.83263 31.4265 4.83173 31.4274 4.83083 31.4283C4.69974 31.4781 4.58688 31.5666 4.5072 31.6821C4.42752 31.7975 4.38477 31.9344 4.38462 32.0746C4.38462 32.2582 4.45755 32.4343 4.58739 32.5642C4.71722 32.694 4.89331 32.7669 5.07692 32.7669C5.12423 32.7663 5.17135 32.7609 5.21755 32.7507C7.9038 32.7429 10.1958 31.5954 12.0189 30.1573C12.8841 30.5092 13.7872 30.7993 14.7287 31.001C14.3077 29.8102 14.0769 28.5425 14.0769 27.2285C14.0769 20.3566 20.2883 14.7669 27.9231 14.7669C29.8366 14.7669 31.6608 15.1185 33.3209 15.754C32.3572 8.95 25.9763 3.69 18.2308 3.69ZM27.9231 17.5362C24.9853 17.5362 22.1678 18.5573 20.0905 20.375C18.0132 22.1926 16.8462 24.6579 16.8462 27.2285C16.8462 29.799 18.0132 32.2643 20.0905 34.082C22.1678 35.8996 24.9853 36.9208 27.9231 36.9208C29.3394 36.9188 30.7421 36.6792 32.0553 36.2149C33.7533 37.4011 35.8083 38.2809 38.1617 38.2892C38.2096 38.2997 38.2586 38.3052 38.3077 38.3054C38.4913 38.3054 38.6674 38.2324 38.7972 38.1026C38.9271 37.9728 39 37.7967 39 37.6131C38.9998 37.4714 38.9561 37.3332 38.8749 37.2172C38.7936 37.1011 38.6787 37.0127 38.5457 36.964C37.2785 36.002 36.4663 34.943 35.9793 33.8649C37.9151 32.0699 38.9954 29.6964 39 27.2285C39 24.6579 37.833 22.1926 35.7556 20.375C33.6783 18.5573 30.8609 17.5362 27.9231 17.5362V17.5362Z" fill="black"/>
</svg>
