<svg width="40" height="40" viewBox="0 0 40 40" fill="none" xmlns="http://www.w3.org/2000/svg">
<path d="M22.1097 2H9.2001C7.2201 2 5.6001 3.62 5.6001 5.6V34.4C5.6001 36.38 7.2201 38 9.2001 38H30.8001C32.7801 38 34.4001 36.38 34.4001 34.4V14.2904C34.4001 13.3364 34.0203 12.4202 33.3453 11.7452L24.6549 3.0548C23.9799 2.3798 23.0637 2 22.1097 2ZM25.4001 30.8H14.6001C13.6065 30.8 12.8001 29.9936 12.8001 29C12.8001 28.0064 13.6065 27.2 14.6001 27.2H25.4001C26.3937 27.2 27.2001 28.0064 27.2001 29C27.2001 29.9936 26.3937 30.8 25.4001 30.8ZM25.4001 23.6H14.6001C13.6065 23.6 12.8001 22.7936 12.8001 21.8C12.8001 20.8064 13.6065 20 14.6001 20H25.4001C26.3937 20 27.2001 20.8064 27.2001 21.8C27.2001 22.7936 26.3937 23.6 25.4001 23.6ZM21.8001 14.6V4.7L31.7001 14.6H21.8001Z" fill="black"/>
</svg>
