<svg width="60" height="24" viewBox="0 0 60 24" fill="none" xmlns="http://www.w3.org/2000/svg">
<path d="M14.6635 4H4.60031V9.58678H13.3217V13.5868H4.60031V23.6033H0V1.91736C0 1.34435 0.19168 0.881543 0.575039 0.528927C0.958399 0.176309 1.4163 0 1.94874 0H14.6635V4Z" fill="white"/>
<path d="M22.6017 6.64463C24.7528 6.64463 26.4673 7.25069 27.7451 8.46281C29.023 9.65289 29.6619 11.3388 29.6619 13.5207V23.6033H25.8283V21.4545C24.6144 23.1515 22.8893 24 20.653 24C19.0131 24 17.682 23.5372 16.6597 22.6116C15.6587 21.6639 15.1582 20.4187 15.1582 18.876C15.1582 16.9807 15.8929 15.6033 17.3625 14.7438C18.832 13.8623 20.6956 13.4215 22.9531 13.4215C23.9115 13.4215 24.8167 13.4876 25.6686 13.6198V13.3884C25.6686 12.3526 25.3598 11.5702 24.7422 11.0413C24.1245 10.4904 23.3046 10.2149 22.2823 10.2149C20.621 10.2149 19.0024 10.843 17.4264 12.0992L15.5735 9.28926C17.3838 7.52617 19.7265 6.64463 22.6017 6.64463ZM21.7072 20.6612C22.8573 20.6612 23.7838 20.2534 24.4866 19.438C25.1894 18.6226 25.5834 17.5647 25.6686 16.2645C24.838 16.1983 24.0393 16.1653 23.2726 16.1653C20.7382 16.1653 19.471 16.9697 19.471 18.5785C19.471 19.1956 19.6733 19.7025 20.078 20.0992C20.4826 20.4738 21.0257 20.6612 21.7072 20.6612Z" fill="white"/>
<path d="M38.736 23.9669C35.9673 23.9669 33.7417 23.1295 32.0592 21.4545L33.7843 18.6116C35.339 19.9118 36.9257 20.562 38.5443 20.562C39.2472 20.562 39.8329 20.4187 40.3014 20.1322C40.7913 19.8457 41.0362 19.449 41.0362 18.9421C41.0362 18.7658 41.0042 18.6006 40.9403 18.4463C40.8765 18.292 40.77 18.1488 40.6209 18.0165C40.4931 17.8843 40.3653 17.7741 40.2375 17.6859C40.1097 17.5978 39.9181 17.4986 39.6625 17.3884C39.4069 17.2782 39.1939 17.2011 39.0235 17.157C38.8745 17.0909 38.6295 17.0028 38.2888 16.8926C37.9693 16.7824 37.735 16.7052 37.586 16.6612C36.0951 16.1322 34.945 15.5152 34.1357 14.8099C33.3477 14.1047 32.9537 13.1129 32.9537 11.8347C32.9537 10.2039 33.55 8.93664 34.7427 8.03306C35.9567 7.10744 37.5114 6.64463 39.4069 6.64463C41.7071 6.64463 43.7091 7.28375 45.4129 8.56198L43.7517 11.3719C42.2821 10.4463 40.8978 9.98347 39.5986 9.98347C38.8958 9.98347 38.3314 10.1267 37.9054 10.4132C37.4795 10.6777 37.2665 11.0303 37.2665 11.4711C37.2665 11.8237 37.4262 12.1433 37.7457 12.4298C38.0652 12.6942 38.3527 12.8815 38.6082 12.9917C38.8851 13.0799 39.375 13.2452 40.0778 13.4876C40.8019 13.73 41.3344 13.9174 41.6751 14.0496C42.0372 14.1818 42.5164 14.4132 43.1127 14.7438C43.7091 15.0523 44.1457 15.3719 44.4225 15.7025C44.7207 16.011 44.9869 16.4298 45.2212 16.9587C45.4555 17.4656 45.5726 18.0386 45.5726 18.6777C45.5726 20.3306 44.9124 21.6309 43.5919 22.5785C42.2715 23.5041 40.6528 23.9669 38.736 23.9669Z" fill="white"/>
<path d="M58.6263 19.0744L60 22.281C58.5731 23.405 56.9012 23.9669 54.9844 23.9669C53.2593 23.9669 51.9175 23.438 50.9591 22.3802C50.0007 21.3223 49.5215 19.8347 49.5215 17.9174V10.1818H47.1255V7.07438H49.5215V1.95041H53.8662V7.07438H59.0416V10.1818H53.8662V17.5207C53.8662 18.4022 54.0792 19.0303 54.5052 19.405C54.9524 19.7796 55.4742 19.9669 56.0706 19.9669C56.9012 19.9669 57.7531 19.6694 58.6263 19.0744Z" fill="white"/>
</svg>
