<svg width="107" height="24" viewBox="0 0 107 24" fill="none" xmlns="http://www.w3.org/2000/svg">
<path d="M14.6635 4H4.60031V9.58678H13.3217V13.5868H4.60031V23.6033H0V1.91736C0 1.34435 0.19168 0.881543 0.575039 0.528927C0.958399 0.176309 1.4163 0 1.94874 0H14.6635V4Z" fill="white"/>
<path d="M22.6017 6.64465C24.7528 6.64465 26.4673 7.25071 27.7451 8.46283C29.023 9.65291 29.6619 11.3388 29.6619 13.5207V23.6033H25.8283V21.4545C24.6144 23.1515 22.8893 24 20.653 24C19.0131 24 17.682 23.5372 16.6597 22.6116C15.6587 21.6639 15.1582 20.4187 15.1582 18.876C15.1582 16.9807 15.8929 15.6033 17.3625 14.7438C18.832 13.8623 20.6956 13.4215 22.9531 13.4215C23.9115 13.4215 24.8167 13.4876 25.6686 13.6198V13.3884C25.6686 12.3526 25.3598 11.5702 24.7422 11.0413C24.1245 10.4904 23.3046 10.2149 22.2823 10.2149C20.621 10.2149 19.0024 10.843 17.4264 12.0992L15.5735 9.28928C17.3838 7.52619 19.7265 6.64465 22.6017 6.64465ZM21.7072 20.6612C22.8573 20.6612 23.7838 20.2534 24.4866 19.438C25.1894 18.6226 25.5834 17.5647 25.6686 16.2645C24.838 16.1983 24.0393 16.1653 23.2726 16.1653C20.7382 16.1653 19.471 16.9697 19.471 18.5785C19.471 19.1956 19.6733 19.7025 20.078 20.0992C20.4826 20.4738 21.0257 20.6612 21.7072 20.6612Z" fill="white"/>
<path d="M38.7359 23.9669C35.9672 23.9669 33.7416 23.1295 32.0591 21.4545L33.7842 18.6116C35.3389 19.9118 36.9256 20.562 38.5442 20.562C39.2471 20.562 39.8328 20.4187 40.3013 20.1322C40.7912 19.8457 41.0361 19.449 41.0361 18.9421C41.0361 18.7658 41.0041 18.6006 40.9402 18.4463C40.8764 18.292 40.7699 18.1488 40.6208 18.0165C40.493 17.8843 40.3652 17.7741 40.2374 17.6859C40.1096 17.5978 39.918 17.4986 39.6624 17.3884C39.4068 17.2782 39.1938 17.2011 39.0234 17.157C38.8744 17.0909 38.6294 17.0028 38.2887 16.8926C37.9692 16.7824 37.7349 16.7052 37.5859 16.6612C36.095 16.1322 34.9449 15.5152 34.1356 14.8099C33.3476 14.1047 32.9536 13.1129 32.9536 11.8347C32.9536 10.2039 33.5499 8.93666 34.7426 8.03308C35.9566 7.10746 37.5113 6.64465 39.4068 6.64465C41.707 6.64465 43.709 7.28377 45.4128 8.562L43.7516 11.3719C42.282 10.4463 40.8977 9.98349 39.5985 9.98349C38.8957 9.98349 38.3313 10.1267 37.9053 10.4132C37.4794 10.6777 37.2664 11.0303 37.2664 11.4711C37.2664 11.8237 37.4261 12.1433 37.7456 12.4298C38.0651 12.6942 38.3526 12.8815 38.6081 12.9917C38.885 13.0799 39.3749 13.2452 40.0777 13.4876C40.8018 13.73 41.3343 13.9174 41.675 14.0496C42.0371 14.1818 42.5163 14.4132 43.1126 14.7438C43.709 15.0523 44.1456 15.3719 44.4224 15.7025C44.7206 16.011 44.9868 16.4298 45.2211 16.9587C45.4554 17.4656 45.5725 18.0386 45.5725 18.6777C45.5725 20.3306 44.9123 21.6309 43.5918 22.5785C42.2714 23.5041 40.6527 23.9669 38.7359 23.9669Z" fill="white"/>
<path d="M58.6263 19.0744L60 22.281C58.5731 23.405 56.9012 23.9669 54.9844 23.9669C53.2593 23.9669 51.9175 23.438 50.9591 22.3802C50.0007 21.3223 49.5215 19.8347 49.5215 17.9174V10.1818H47.1255V7.07441H49.5215V1.95044H53.8662V7.07441H59.0416V10.1818H53.8662V17.5207C53.8662 18.4022 54.0792 19.0303 54.5052 19.405C54.9524 19.7796 55.4742 19.9669 56.0706 19.9669C56.9012 19.9669 57.7531 19.6694 58.6263 19.0744Z" fill="white"/>
<path d="M73 18C76.5455 18 78.5455 15.7955 78.5455 12.1591C78.5455 8.54545 76.5455 6.36364 73.1591 6.36364H69.4091V18H73ZM70.8182 16.75V7.61364H73.0682C75.7955 7.61364 77.1818 9.34091 77.1818 12.1591C77.1818 15 75.7955 16.75 72.9091 16.75H70.8182ZM84.2727 18.1818C86.6364 18.1818 88.2273 16.3864 88.2273 13.6818C88.2273 10.9545 86.6364 9.15909 84.2727 9.15909C81.9091 9.15909 80.3182 10.9545 80.3182 13.6818C80.3182 16.3864 81.9091 18.1818 84.2727 18.1818ZM84.2727 16.9773C82.4773 16.9773 81.6591 15.4318 81.6591 13.6818C81.6591 11.9318 82.4773 10.3636 84.2727 10.3636C86.0682 10.3636 86.8864 11.9318 86.8864 13.6818C86.8864 15.4318 86.0682 16.9773 84.2727 16.9773ZM93.8196 18.1818C95.7514 18.1818 97.0241 17 97.2514 15.4545H95.9105C95.6605 16.4091 94.8651 16.9773 93.8196 16.9773C92.2287 16.9773 91.206 15.6591 91.206 13.6364C91.206 11.6591 92.2514 10.3636 93.8196 10.3636C95.0014 10.3636 95.706 11.0909 95.9105 11.8864H97.2514C97.0241 10.25 95.6378 9.15909 93.7969 9.15909C91.4332 9.15909 89.8651 11.0227 89.8651 13.6818C89.8651 16.2955 91.3651 18.1818 93.8196 18.1818ZM105.393 11.2273C104.973 9.98864 104.03 9.15909 102.303 9.15909C100.462 9.15909 99.098 10.2045 99.098 11.6818C99.098 12.8864 99.8139 13.6932 101.416 14.0682L102.871 14.4091C103.751 14.6136 104.166 15.0341 104.166 15.6364C104.166 16.3864 103.371 17 102.121 17C101.024 17 100.337 16.5284 100.098 15.5909L98.8253 15.9091C99.1378 17.392 100.359 18.1818 102.143 18.1818C104.172 18.1818 105.553 17.0739 105.553 15.5682C105.553 14.3523 104.791 13.5852 103.234 13.2045L101.939 12.8864C100.905 12.6307 100.439 12.2841 100.439 11.6136C100.439 10.8636 101.234 10.3182 102.303 10.3182C103.473 10.3182 103.956 10.9659 104.189 11.5682L105.393 11.2273Z" fill="white"/>
</svg>
