<svg width="42" height="42" viewBox="0 0 42 42" fill="none" xmlns="http://www.w3.org/2000/svg">
<path d="M21 3C11.0595 3 3 11.0595 3 21C3 30.9405 11.0595 39 21 39C30.9405 39 39 30.9405 39 21C39 11.0595 30.9405 3 21 3ZM21 32.25C19.758 32.25 18.75 31.242 18.75 30C18.75 28.758 19.758 27.75 21 27.75C22.242 27.75 23.25 28.758 23.25 30C23.25 31.242 22.242 32.25 21 32.25ZM24.102 21.75C23.109 22.6665 22.5 23.268 22.5 24H19.5C19.5 21.9165 20.9235 20.6025 22.0665 19.545C23.265 18.438 24 17.6985 24 16.5C24 14.8455 22.6545 13.5 21 13.5C19.3455 13.5 18 14.8455 18 16.5H15C15 13.191 17.691 10.5 21 10.5C24.309 10.5 27 13.191 27 16.5C27 19.0725 25.3935 20.556 24.102 21.75Z" fill="black"/>
</svg>
