<svg width="62" height="24" viewBox="0 0 62 24" fill="none" xmlns="http://www.w3.org/2000/svg"> <path d="M15.1523 4H4.75366V9.58678H13.7658V13.5868H4.75366V23.6033H0V1.91736C0 1.34435 0.198069 0.881543 0.594207 0.528927C0.990346 0.176309 1.46351 0 2.0137 0H15.1523V4Z" fill="black"/> <path d="M23.3551 6.64463C25.5779 6.64463 27.3495 7.25069 28.67 8.46281C29.9904 9.65289 30.6507 11.3388 30.6507 13.5207V23.6033H26.6893V21.4545C25.4349 23.1515 23.6522 24 21.3414 24C19.6468 24 18.2714 23.5372 17.215 22.6116C16.1806 21.6639 15.6634 20.4187 15.6634 18.876C15.6634 16.9807 16.4227 15.6033 17.9412 14.7438C19.4598 13.8623 21.3854 13.4215 23.7183 13.4215C24.7086 13.4215 25.6439 13.4876 26.5242 13.6198V13.3884C26.5242 12.3526 26.2051 11.5702 25.5669 11.0413C24.9287 10.4904 24.0814 10.2149 23.025 10.2149C21.3084 10.2149 19.6358 10.843 18.0073 12.0992L16.0926 9.28926C17.9632 7.52617 20.3841 6.64463 23.3551 6.64463ZM22.4308 20.6612C23.6192 20.6612 24.5766 20.2534 25.3028 19.438C26.0291 18.6226 26.4362 17.5647 26.5242 16.2645C25.6659 16.1983 24.8406 16.1653 24.0484 16.1653C21.4295 16.1653 20.12 16.9697 20.12 18.5785C20.12 19.1956 20.3291 19.7025 20.7472 20.0992C21.1654 20.4738 21.7266 20.6612 22.4308 20.6612Z" fill="black"/> <path d="M40.0272 23.9669C37.1662 23.9669 34.8664 23.1295 33.1278 21.4545L34.9104 18.6116C36.517 19.9118 38.1566 20.562 39.8292 20.562C40.5554 20.562 41.1606 20.4187 41.6448 20.1322C42.151 19.8457 42.4041 19.449 42.4041 18.9421C42.4041 18.7658 42.371 18.6006 42.305 18.4463C42.239 18.292 42.129 18.1488 41.9749 18.0165C41.8429 17.8843 41.7108 17.7741 41.5788 17.6859C41.4467 17.5978 41.2487 17.4986 40.9846 17.3884C40.7205 17.2782 40.5004 17.2011 40.3243 17.157C40.1703 17.0909 39.9172 17.0028 39.5651 16.8926C39.235 16.7824 38.9929 16.7052 38.8388 16.6612C37.2983 16.1322 36.1099 15.5152 35.2736 14.8099C34.4593 14.1047 34.0521 13.1129 34.0521 11.8347C34.0521 10.2039 34.6684 8.93664 35.9008 8.03306C37.1552 7.10744 38.7618 6.64463 40.7205 6.64463C43.0973 6.64463 45.166 7.28375 46.9266 8.56198L45.21 11.3719C43.6915 10.4463 42.261 9.98347 40.9185 9.98347C40.1923 9.98347 39.6091 10.1267 39.1689 10.4132C38.7288 10.6777 38.5087 11.0303 38.5087 11.4711C38.5087 11.8237 38.6738 12.1433 39.0039 12.4298C39.334 12.6942 39.6311 12.8815 39.8952 12.9917C40.1813 13.0799 40.6875 13.2452 41.4137 13.4876C42.162 13.73 42.7122 13.9174 43.0643 14.0496C43.4384 14.1818 43.9336 14.4132 44.5498 14.7438C45.166 15.0523 45.6172 15.3719 45.9033 15.7025C46.2114 16.011 46.4865 16.4298 46.7286 16.9587C46.9706 17.4656 47.0917 18.0386 47.0917 18.6777C47.0917 20.3306 46.4095 21.6309 45.045 22.5785C43.6805 23.5041 42.0079 23.9669 40.0272 23.9669Z" fill="black"/> <path d="M60.5805 19.0744L62 22.281C60.5255 23.405 58.7979 23.9669 56.8172 23.9669C55.0346 23.9669 53.6481 23.438 52.6577 22.3802C51.6674 21.3223 51.1722 19.8347 51.1722 17.9174V10.1818H48.6964V7.07438H51.1722V1.95041H55.6618V7.07438H61.0097V10.1818H55.6618V17.5207C55.6618 18.4022 55.8819 19.0303 56.322 19.405C56.7842 19.7796 57.3234 19.9669 57.9396 19.9669C58.7979 19.9669 59.6782 19.6694 60.5805 19.0744Z" fill="black"/> </svg> 