<svg width="42" height="42" viewBox="0 0 42 42" fill="none" xmlns="http://www.w3.org/2000/svg">
<path d="M38.3424 6.65725C36.8753 7.35026 34.3787 8.64988 33.1241 8.89828C33.0755 8.91088 33.0359 8.92708 32.9891 8.93968C31.5257 7.49606 29.5204 6.60144 27.301 6.60144C22.8279 6.60144 19.2009 10.2285 19.2009 14.7016C19.2009 14.9374 19.1811 15.3712 19.2009 15.6016C13.4084 15.6016 9.17829 12.5793 6.01203 8.69488C5.58903 8.17287 5.13902 8.44468 5.04542 8.81548C4.83481 9.6543 4.76281 11.0565 4.76281 12.0573C4.76281 14.5792 6.73385 17.056 9.8029 18.5914C9.23769 18.7372 8.61488 18.8416 7.96687 18.8416C7.20365 18.8416 6.32524 18.6418 5.55663 18.2386C5.27222 18.0892 4.65841 18.1306 4.84021 18.8578C5.56923 21.7721 8.89568 23.8187 11.8675 24.4145C11.1925 24.8123 9.7525 24.7313 9.09008 24.7313C8.84528 24.7313 7.99387 24.6737 7.44306 24.6053C6.94085 24.5441 6.16864 24.6737 6.81485 25.653C8.20267 27.7536 11.3419 29.073 14.0438 29.1234C11.5561 31.0747 7.48806 31.7875 3.59099 31.7875C2.80258 31.7695 2.84218 32.6677 3.47759 33.0007C6.35224 34.5091 11.0611 35.4019 14.4254 35.4019C27.7996 35.4019 35.4011 25.2084 35.4011 15.5998C35.4011 15.445 35.3975 15.121 35.3921 14.7952C35.3921 14.7628 35.4011 14.7322 35.4011 14.6998C35.4011 14.6512 35.3867 14.6044 35.3867 14.5558C35.3813 14.311 35.3759 14.0824 35.3705 13.9636C36.4307 13.1986 38.0544 11.8701 38.8752 10.8531C39.1542 10.5075 38.9292 10.0881 38.5494 10.2195C37.572 10.5597 35.8817 11.2185 34.8233 11.3445C36.9419 9.9423 37.9896 8.72188 38.8896 7.36646C39.1974 6.90385 38.8122 6.43404 38.3424 6.65725Z" fill="black"/>
</svg>
