<svg width="40" height="40" viewBox="0 0 40 40" fill="none" xmlns="http://www.w3.org/2000/svg">
<path d="M5.59998 3.79999C3.61099 3.79999 2 5.41098 2 7.39997V30.7999C2 33.7824 4.41739 36.1998 7.39997 36.1998H32.5999C35.5608 36.1998 37.9998 33.7608 37.9998 30.7999V12.7999C38.0031 12.5591 37.9581 12.3201 37.8673 12.097C37.7766 11.8739 37.642 11.6713 37.4715 11.5012C37.3011 11.331 37.0982 11.1968 36.8749 11.1065C36.6516 11.0162 36.4125 10.9716 36.1717 10.9753C35.6949 10.9828 35.2406 11.1791 34.9084 11.5212C34.5762 11.8633 34.3933 12.3232 34.3998 12.7999V30.7999C34.3998 31.8169 33.6169 32.5999 32.5999 32.5999C31.6063 32.5999 30.7999 31.7917 30.7999 30.7999V7.39997C30.7999 5.41098 29.1889 3.79999 27.1999 3.79999H5.59998ZM11 9.19996H21.7999C22.7935 9.19996 23.5999 10.0064 23.5999 11V12.7999C23.5999 13.7935 22.7935 14.5999 21.7999 14.5999H11C10.0064 14.5999 9.19997 13.7935 9.19997 12.7999V11C9.19997 10.0064 10.0064 9.19996 11 9.19996ZM11 19.9999H21.7999C22.7935 19.9999 23.5999 20.8063 23.5999 21.7999C23.5999 22.7935 22.7935 23.5999 21.7999 23.5999H11C10.0064 23.5999 9.19997 22.7935 9.19997 21.7999C9.19997 20.8063 10.0064 19.9999 11 19.9999ZM11 27.1999H21.7999C22.7935 27.1999 23.5999 28.0063 23.5999 28.9999C23.5999 29.9935 22.7935 30.7999 21.7999 30.7999H11C10.0064 30.7999 9.19997 29.9935 9.19997 28.9999C9.19997 28.0063 10.0064 27.1999 11 27.1999Z" fill="black"/>
</svg>
